<svg height="28" viewBox="0 0 106 31" width="96" xmlns="http://www.w3.org/2000/svg" class="sc-cZwWEu jlTRle"><g fill="none" fill-rule="evenodd"><path d="m1.80453154 5.98359966 3.63502755 6.47897394-5.43955909 9.5555088h6.49112064l5.40061236-9.5555088-3.63502755-6.47897394z" fill="#0698a0"></path><path d="m21.1221066 0-10.489651 18.6417157 6.7637477 12.3582843h6.5819963l-6.8805878-12.3582843 10.5026331-18.6417157z" fill="#b7df4b"></path><path d="m40.5045928 2.99831791 3.7778322 7.97813289 4.1283527-7.97813289h5.3876301l-6.6079608 11.98023549 6.8676057 13.0231287h-5.647275l-4.2451929-8.7342305-4.2062462 8.7342305h-5.4265768l6.5430496-12.9579479-6.2574403-12.04541629zm16.5783221 25.00336419h5.2448255v-25.00336419h-5.2448255zm48.9041031-14.3528175h-8.6721374v4.3149706h3.8687074v5.4360807c-.895774.3650126-1.6876909.5084104-2.60943.5084104-3.9725658 0-5.6213105-2.9852817-5.6213105-8.304037 0-4.9667788 1.4280466-8.56476028 6.1276179-8.56476028 1.5708516 0 3.2974896.43019344 4.9851806 1.186291l1.50594-3.98906645c-2.077159-1.08200168-4.336069-1.55130361-6.6988365-1.55130361-7.698469 0-11.0998162 4.86248948-11.0998162 12.87973084 0 8.1997477 3.2585425 12.7754416 10.8142069 12.7754416 2.4406618 0 4.9072868-.5084105 7.4128598-1.6947015v-12.9970563zm-34.7274956-10.65054669h-4.4139621v25.00336419h5.1020208v-14.1442389l8.4124924 14.1442389h4.2711574v-25.00336419h-5.1020209v14.14423889z" fill="#0698a0"></path></g></svg>
